#N canvas 130 387 819 451 10;
#X obj 394 162 netsend -u -b;
#X msg 403 136 connect localhost 30003;
#X obj 403 115 loadbang;
#X obj 394 70 list prepend send;
#X obj 394 92 list trim;
#X obj 20 5 hsl 512 15 0 1 0 0 empty empty empty -2 -8 0 10 -4034 -1
-1 8200 1;
#X obj 18 141 oscformat play;
#X obj 406 40 r sendosc;
#X obj 18 170 s sendosc;
#X msg 18 106 1;
#X obj 17 32 oscformat -f f scrub;
#X obj 19 230 oscformat play;
#X obj 19 259 s sendosc;
#X msg 19 195 1;
#X msg 53 106 2;
#X obj 121 107 bng 15 250 50 0 empty empty empty 17 7 0 10 -262144
-1 -1;
#X obj 121 142 oscformat stop;
#X obj 219 112 tgl 15 0 empty empty empty 17 7 0 10 -262144 -1 -1 1
1;
#X obj 218 143 oscformat -f i pause;
#X obj 17 63 s sendosc;
#X connect 1 0 0 0;
#X connect 2 0 1 0;
#X connect 3 0 4 0;
#X connect 4 0 0 0;
#X connect 5 0 10 0;
#X connect 6 0 8 0;
#X connect 7 0 3 0;
#X connect 9 0 6 0;
#X connect 10 0 19 0;
#X connect 11 0 12 0;
#X connect 13 0 11 0;
#X connect 14 0 6 0;
#X connect 15 0 16 0;
#X connect 16 0 8 0;
#X connect 17 0 18 0;
#X connect 18 0 8 0;
